<?xml version="1.0" encoding="utf-8"?>
<!-- Generator: Adobe Illustrator 22.0.0, SVG Export Plug-In . SVG Version: 6.00 Build 0)  -->
<svg version="1.1" id="Layer_1" xmlns="http://www.w3.org/2000/svg" xmlns:xlink="http://www.w3.org/1999/xlink" x="0px" y="0px"
	 viewBox="0 0 500 500" style="enable-background:new 0 0 500 500;" xml:space="preserve">
<style type="text/css">
	.st0{fill:#c4b0a1;}
</style>
<g>
	<path class="st0" d="M28.9,22.2C29,22.2,29,22.2,28.9,22.2l-1,0C28.3,22.1,28.6,22,28.9,22.2z"/>
	<path class="st0" d="M87.5,22.2L87.5,22.2c0,0,0.1,0,0.1,0H87.5z"/>
	<path class="st0" d="M87.1,22.2c1.5,0,3.9-0.2,4.7-2.2h-5.4l161.8,0v2.2L87.1,22.2z"/>
	<path class="st0" d="M22.2,39.4v1.6c0-0.2,0-0.3-0.1-0.5C22.1,40.1,22.2,39.7,22.2,39.4z"/>
	<path class="st0" d="M22.2,320H20l0-226.7c1.8-2.4,2.2,1,2.2-3.7L22.2,320z"/>
	<path class="st0" d="M85,24.9c0.2-0.3,0.4-0.5,0.6-0.8h7C90.7,24.9,87.2,24.9,85,24.9z"/>
	<path class="st0" d="M88.3,22.2h-0.7c0,0-0.1,0-0.1,0L86.4,20h15.2C99.2,22,92.5,22.2,88.3,22.2z"/>
	<path class="st0" d="M86.4,22.2c0.2-0.7,0.2-1.5,0-2.2l1.2,2.2C87.1,22.2,86.7,22.2,86.4,22.2z"/>
	<path class="st0" d="M87.6,22.2h0.7C88.1,22.2,87.9,22.2,87.6,22.2z"/>
	<path class="st0" d="M57.7,39.3c0.9-0.2,2.2-0.3,2.7,0.5c0.5,0.7,0.3,1.9,0,2.7c-1,2.8-3.6,6-6.5,7.8c0.9-1.1,1.6-2.3,2.2-3.5
		C57.1,44.6,58.1,41.6,57.7,39.3z"/>
	<path class="st0" d="M53.8,44.8c0.5,0.4,0.7,1.1,0.3,1.7c-0.4,0.5-1.1,0.7-1.7,0.3c-0.5-0.4-0.7-1.1-0.3-1.7
		C52.5,44.5,53.3,44.4,53.8,44.8z"/>
	<path class="st0" d="M55.2,38.4c0.2-0.2,0.5-0.3,0.7-0.1c0.2,0.2,0.3,0.5,0.1,0.7c-0.2,0.2-0.5,0.3-0.7,0.1
		C55.1,38.9,55.1,38.6,55.2,38.4z"/>
	<path class="st0" d="M54.4,42.7c-0.4-0.3-0.5-0.8-0.2-1.2c0.3-0.4,0.8-0.5,1.2-0.2c0.4,0.3,0.5,0.8,0.2,1.2
		C55.2,42.8,54.7,42.9,54.4,42.7z"/>
	<path class="st0" d="M45,44.8c3.9-0.3,6.8-3.9,8-7.6c-0.1,1.3-0.4,2.5-0.8,3.6c-0.5,1.5-1.3,3.1-2.2,4.3c-0.6,0.8-1.6,1.8-2.6,1.7
		c-0.1,0-0.2,0-0.3-0.1C46.8,45.9,45.9,45.2,45,44.8z"/>
	<path class="st0" d="M53.3,32.1c-0.2-1.6,0.7-2.9,1.8-3.9c0.1,3,2.6,5.4,5.4,6.1c8.6,2.3,17.8,2.4,25.8-1.8c2-1.1,3.6-3.3,2.4-5.3
		c0.7,0.2,1.5,0.5,1.7,1.2c0.5,1.7-2.3,4.3-3.6,5.3c-4.6,3.3-10.6,4.7-16.1,5c-3.9,0.2-7.9-0.3-11.6-1.4
		C56.7,36.5,53.6,34.8,53.3,32.1z"/>
	<path class="st0" d="M80,26.8c-2.8,1.3-6.1,2-9.1,2.4c-2.7,0.4-5.6,0.5-8.4,0.3c-1.1-0.1-2.6-0.3-3.9-0.7
		c6.8,0.2,19.9-1.7,24.6-6.6h1.4c0,0.1,0,0.2,0,0.3C84.1,24.6,81.7,26,80,26.8z"/>
	<path class="st0" d="M84.4,20.6c0.2,0.5,0.3,1.1,0.2,1.7h-1.4C83.7,21.7,84.1,21.2,84.4,20.6z"/>
	<path class="st0" d="M71.3,33.3c-0.5,0.1-1.1-0.2-1.2-0.7c-0.1-0.5,0.2-1.1,0.7-1.2c0.5-0.1,1.1,0.2,1.2,0.7
		C72.2,32.6,71.8,33.2,71.3,33.3z"/>
	<path class="st0" d="M73.9,32.1c-0.2-0.7,0.3-1.3,0.9-1.5c0.7-0.2,1.3,0.3,1.5,0.9c0.2,0.7-0.3,1.3-0.9,1.5
		C74.7,33.2,74,32.8,73.9,32.1z"/>
	<path class="st0" d="M78.2,31.1c-0.2-0.8,0.3-1.6,1.1-1.8c0.8-0.2,1.6,0.3,1.8,1.1c0.2,0.8-0.3,1.6-1.1,1.8
		C79.2,32.3,78.4,31.8,78.2,31.1z"/>
	<path class="st0" d="M64.2,32.5c-0.1-0.3,0.1-0.6,0.4-0.6c0.3-0.1,0.6,0.1,0.6,0.4c0.1,0.3-0.1,0.6-0.4,0.6
		C64.5,33,64.3,32.8,64.2,32.5z"/>
	<path class="st0" d="M66.8,32.7c-0.1-0.4,0.2-0.8,0.6-0.9c0.4-0.1,0.8,0.2,0.9,0.6c0.1,0.4-0.2,0.8-0.6,0.9
		C67.3,33.4,66.9,33.1,66.8,32.7z"/>
	<path class="st0" d="M62,32.1c0-0.2,0.1-0.3,0.3-0.3c0.2,0,0.3,0.1,0.3,0.3c0,0.2-0.1,0.3-0.3,0.3C62.1,32.3,62,32.2,62,32.1z"/>
	<path class="st0" d="M82.9,29.3c-0.2-0.9,0.3-1.8,1.2-2c0.9-0.2,1.8,0.3,2,1.2c0.2,0.9-0.3,1.8-1.2,2C84,30.7,83.1,30.2,82.9,29.3z
		"/>
	<path class="st0" d="M79.3,23h-6.4c0.2-0.2,0.4-0.5,0.7-0.7h6.9C80.1,22.5,79.7,22.7,79.3,23z"/>
	<path class="st0" d="M71.6,25.6h-1.8c0.4-0.3,0.8-0.5,1.1-0.8h3.9C73.7,25.1,72.6,25.3,71.6,25.6z"/>
	<path class="st0" d="M80.5,22.2h-6.9c0.5-0.5,0.9-0.9,1.3-1.4c0,0,0.1-0.1,0.1-0.1h7.2C81.7,21.3,81.1,21.8,80.5,22.2z"/>
	<path class="st0" d="M57.6,21.1c-0.8-0.1-1.6-0.2-2.4-0.4h12.7C64.6,21.6,61,21.5,57.6,21.1z"/>
	<path class="st0" d="M27,23.8c-0.2,1.2,0.5,2.1,1.7,2.5c1.3,0.5,3.2,0.4,4.6,0.2c0,0,0,0,0.1,0c0.1,0.7,0.3,1.4,0.5,2.1
		c-1.8,0-3.7-0.2-5.2-0.6c-0.2-0.1-0.4-0.1-0.6-0.2c-0.5-1.4-1.4-2.5-2.8-2.8c-0.1-0.3-0.1-0.7-0.1-1.1c0-0.6,0.2-1.1,0.4-1.6H28
		C27.4,22.5,27.1,23.2,27,23.8z"/>
	<path class="st0" d="M38.9,38.7c-0.1-0.7-0.1-1.5,0.1-2.2c0.4-1.3,1.4-2.1,2.7-2.5c3.5-1,6.8,2.9,2.4,4.7c0-0.6-0.2-1.1-0.8-1.4
		c-0.4-0.2-1-0.1-1.4,0.2c-1,0.7-0.3,2.2,0.5,2.8c2.9,2.2,6.5-2.4,6.9-5c0.5-2.9-0.7-5-3.5-5.9c-2.5-0.8-6-0.8-8.7-0.8
		c-0.3-0.8-0.5-1.7-0.5-2.6c0.9-0.1,1.7-0.3,2.6-0.4c1.8-0.2,3.7-0.5,5.5-0.3c6.6,0.4,7.5,4.8,6.2,10.6C50.7,37,50.2,38,49.6,39
		c-1.4,2.2-4,4.2-6.5,3.9c-0.1-0.8-0.4-1.5-0.9-2.2C41.5,39.6,40.2,38.9,38.9,38.7z"/>
	<path class="st0" d="M29,24.4c0.4-0.2,0.7-0.6,0.6-1.2c-0.1-0.4-0.3-0.8-0.7-1h3C32.7,24.1,31.1,25.9,29,24.4z"/>
	<path class="st0" d="M28.9,22.2c-0.3-0.2-0.7-0.1-1,0h-2.4c0.5-1,1.3-1.8,2.4-2.1c1.2-0.4,2.4,0.1,3.3,1c0.4,0.4,0.6,0.8,0.8,1.1
		L28.9,22.2C29,22.2,29,22.2,28.9,22.2z"/>
	<path class="st0" d="M37,28.6c0.1,0,0.1,0,0.2,0c0.1,0.1,0.1,0.3,0.2,0.4c1.2,2.2,3.3,3.2,5.5,3.3c-2.5,0.6-5.2,0.4-7.2-1.4
		c-0.8-0.6-1.4-1.5-1.8-2.4C35,28.6,36,28.6,37,28.6z"/>
	<path class="st0" d="M38.1,22.7c-1,0.8-1.4,2.1-1.4,3.3c-1.1,0.2-2.2,0.3-3.4,0.5c-0.1-0.7,0-1.5,0.2-2.2c0.2-0.8,0.6-1.5,1.1-2
		h4.2C38.5,22.4,38.3,22.5,38.1,22.7z"/>
	<path class="st0" d="M55.5,26.4c-2.8-0.5-5.4-1.5-8-2.5c-1.5-0.6-3.2-1.2-4.9-1.7h10.1c1.6,0.3,3.2,0.6,4.7,0.8
		c4.1,0.5,8.2,0.5,12.1-0.8h1.4C66.6,26,61.6,27.6,55.5,26.4z"/>
	<path class="st0" d="M69.5,22.2c0.8-0.3,1.6-0.6,2.4-0.9c-0.3,0.3-0.7,0.6-1,0.9H69.5z"/>
	<path class="st0" d="M40.7,21.9c-0.7-0.1-1.3,0-1.9,0.3h-4.2c1.4-1.6,3.8-2.2,6-2.1c2.6,0.1,5.3,0.7,7.8,1.2
		c1.4,0.3,2.8,0.6,4.2,0.9H42.5C41.9,22.1,41.3,22,40.7,21.9z"/>
	<path class="st0" d="M37,28.6c-1,0-2,0-3.1,0c-0.3-0.7-0.5-1.4-0.5-2.1c1.1-0.1,2.2-0.3,3.4-0.5c0,0.9,0.2,1.8,0.5,2.6
		C37.1,28.6,37.1,28.6,37,28.6z"/>
	<path class="st0" d="M24,92.3v-7c0.3-0.2,0.6-0.4,0.8-0.6C24.9,86.9,24.9,90.4,24,92.3z"/>
	<path class="st0" d="M22.2,86.1c0,0.9,0,2.1,0,3.5L22.2,86.1C22.2,86.1,22.2,86.1,22.2,86.1z"/>
	<path class="st0" d="M22.2,86.1v3.5c-0.1,4.1-0.4,9.6-2.2,11.7V86.1C20.7,86.3,21.5,86.3,22.2,86.1z"/>
	<path class="st0" d="M30.3,30.7c-0.1-0.2-0.1-0.5,0.1-0.6c0.2-0.1,0.5-0.1,0.6,0.1c0.1,0.2,0.1,0.5-0.1,0.6
		C30.8,31,30.5,31,30.3,30.7z"/>
	<path class="st0" d="M32.2,33.2c-0.3-0.4-0.2-1,0.2-1.3c0.4-0.3,1-0.2,1.3,0.2c0.3,0.4,0.2,1-0.2,1.3
		C33.1,33.7,32.5,33.6,32.2,33.2z"/>
	<path class="st0" d="M37.1,34.9c0.4,0.6,0.3,1.5-0.3,1.9c-0.6,0.4-1.5,0.3-1.9-0.3c-0.4-0.6-0.3-1.5,0.3-1.9
		C35.8,34.1,36.7,34.3,37.1,34.9z"/>
	<path class="st0" d="M46.9,55.9c1.2-0.6,2.4-1.3,3.5-2.2c-1.7,2.8-4.9,5.5-7.8,6.5c-0.8,0.3-2,0.5-2.7,0c-0.7-0.6-0.6-1.8-0.5-2.7
		C41.9,57.9,44.9,56.9,46.9,55.9z"/>
	<path class="st0" d="M47,52.2c0.4,0.5,0.3,1.3-0.3,1.7c-0.5,0.4-1.3,0.3-1.7-0.3c-0.4-0.5-0.3-1.3,0.3-1.7
		C45.8,51.5,46.6,51.6,47,52.2z"/>
	<path class="st0" d="M48.6,50.6c-0.5-0.7-0.3-1.7,0.4-2.3c0.7-0.5,1.7-0.3,2.3,0.4c0.5,0.7,0.3,1.7-0.4,2.3
		C50.2,51.5,49.2,51.4,48.6,50.6z"/>
	<path class="st0" d="M38.6,55c0.2-0.2,0.5-0.1,0.7,0.1c0.2,0.2,0.1,0.5-0.1,0.7c-0.2,0.2-0.5,0.1-0.7-0.1
		C38.4,55.5,38.4,55.2,38.6,55z"/>
	<path class="st0" d="M42.9,54.1c0.3,0.4,0.2,0.9-0.2,1.2c-0.4,0.3-0.9,0.2-1.2-0.2c-0.3-0.4-0.2-0.9,0.2-1.2
		C42.1,53.6,42.6,53.7,42.9,54.1z"/>
	<path class="st0" d="M37.5,52.8c3.6-1.2,7.3-4.1,7.6-8c0.4,0.8,1.1,1.8,2,2c0,0.1,0.1,0.2,0.1,0.3c0,1-1,2-1.7,2.6
		c-1.2,1-2.8,1.7-4.3,2.2C40,52.4,38.7,52.7,37.5,52.8z"/>
	<path class="st0" d="M45,44.8c0.8,0.4,1.8,1.1,2,2C46.2,46.6,45.4,45.6,45,44.8z"/>
	<path class="st0" d="M32.8,86c4.3-8,4.1-17.2,1.8-25.8c-0.8-2.9-3.1-5.4-6.1-5.4c1-1.1,2.3-2,3.9-1.8c2.7,0.4,4.4,3.5,5.1,5.8
		c1.1,3.7,1.5,7.8,1.4,11.6c-0.2,5.6-1.7,11.5-5,16.1c-0.4,0.6-0.9,1.1-1.4,1.7c-0.8,0.8-2.6,2.3-3.8,1.9c-0.7-0.2-1-1-1.2-1.7
		C29.5,89.6,31.7,88,32.8,86z"/>
	<path class="st0" d="M22.2,83.2c5.1-4.5,7.1-18,6.9-24.9c0.4,1.3,0.6,2.8,0.7,3.9c0.2,2.8,0.1,5.6-0.3,8.4c-0.4,3-1.1,6.3-2.4,9.1
		c-0.8,1.8-2.2,4.1-4.2,4.6c-0.2,0-0.4,0.1-0.6,0.1V83.2z"/>
	<path class="st0" d="M20.8,84.2c0.5-0.2,1-0.6,1.4-1v1.2C21.8,84.4,21.3,84.3,20.8,84.2z"/>
	<path class="st0" d="M33.5,67.4c-0.1,0.4-0.5,0.7-0.9,0.6c-0.4-0.1-0.7-0.5-0.6-0.9c0.1-0.4,0.5-0.7,0.9-0.6
		C33.4,66.6,33.6,67,33.5,67.4z"/>
	<path class="st0" d="M33.5,71c-0.1,0.5-0.7,0.9-1.2,0.7c-0.5-0.1-0.9-0.7-0.7-1.2c0.1-0.5,0.7-0.9,1.2-0.7
		C33.3,70,33.7,70.5,33.5,71z"/>
	<path class="st0" d="M31.8,76c-0.7-0.2-1.1-0.8-0.9-1.5c0.2-0.7,0.8-1.1,1.5-0.9c0.7,0.2,1.1,0.8,0.9,1.5
		C33.1,75.8,32.5,76.2,31.8,76z"/>
	<path class="st0" d="M31.3,78c0.8,0.2,1.3,1,1.1,1.8c-0.2,0.8-1,1.3-1.8,1.1c-0.8-0.2-1.3-1-1.1-1.8C29.7,78.3,30.5,77.8,31.3,78z"
		/>
	<path class="st0" d="M32.3,62.3c-0.2,0-0.3-0.1-0.3-0.3c0-0.2,0.1-0.3,0.3-0.3c0.2,0,0.3,0.1,0.3,0.3
		C32.6,62.2,32.5,62.3,32.3,62.3z"/>
	<path class="st0" d="M30.8,84.7c-0.2,0.9-1.1,1.5-2,1.2c-0.9-0.2-1.5-1.1-1.2-2c0.2-0.9,1.1-1.5,2-1.2C30.4,82.8,31,83.8,30.8,84.7
		z"/>
	<path class="st0" d="M33.2,64.6c-0.1,0.3-0.4,0.5-0.6,0.4c-0.3-0.1-0.5-0.4-0.4-0.6c0.1-0.3,0.4-0.5,0.6-0.4
		C33,64,33.2,64.3,33.2,64.6z"/>
	<path class="st0" d="M23.2,72.7v6.4c-0.3,0.5-0.6,1.1-1,1.6v-7.1C22.6,73.3,22.9,73,23.2,72.7z"/>
	<path class="st0" d="M25.8,69.5v1.8c-0.2,1.1-0.5,2.1-0.8,3.2v-3.9C25.3,70.2,25.6,69.8,25.8,69.5z"/>
	<path class="st0" d="M21,55c0.1,0.8,0.3,1.6,0.4,2.4c0.4,3.4,0.5,6.9-0.4,10.2V55z"/>
	<path class="st0" d="M22.2,80.6c-0.4,0.5-0.8,1-1.3,1.3v-7.2c0,0,0.1-0.1,0.1-0.1c0.4-0.3,0.8-0.7,1.2-1.1V80.6z"/>
	<path class="st0" d="M25.2,25c0.3,1.4,1.4,2.3,2.8,2.8c0.1,0.2,0.1,0.4,0.2,0.6c0.4,1.6,0.5,3.4,0.6,5.2c-0.7-0.3-1.4-0.5-2.1-0.5
		c0,0,0,0,0-0.1c0.2-1.4,0.3-3.3-0.2-4.6c-0.5-1.1-1.3-1.8-2.5-1.7c-0.9,0.1-2,1-1.6,2c0.1,0.3,0.4,0.5,0.7,0.6
		c0.7,0.3,1.2,0,1.5-0.5c1.6,2.2-0.5,3.8-2.4,2.8v-6.2c0.6-0.3,1.2-0.5,1.9-0.6C24.5,24.8,24.9,24.9,25.2,25z"/>
	<path class="st0" d="M29.6,45.6c0.9,2.8,3,4,5.9,3.5c2.6-0.4,7.2-4.1,5-6.9c-0.6-0.8-2.1-1.4-2.8-0.5c-0.2,0.3-0.3,0.7-0.3,1
		c0.1,0.9,0.7,1.2,1.5,1.2c-1.8,4.4-5.7,1.1-4.7-2.4c0.4-1.3,1.2-2.3,2.5-2.7c0.7-0.2,1.5-0.3,2.2-0.1c0.1,0.6,0.3,1.2,0.6,1.7
		c0.3,0.6,0.8,1.1,1.4,1.6c0.7,0.5,1.5,0.8,2.2,0.9c0,0.2,0,0.4,0,0.6c-0.1,3.5-3.8,6.5-7,7.2c-5.8,1.3-10.2,0.4-10.6-6.2
		c-0.1-1.8,0.1-3.7,0.3-5.5c0.1-0.9,0.3-1.7,0.4-2.6c0.9,0,1.8,0.2,2.6,0.5C28.8,39.6,28.8,43.1,29.6,45.6z"/>
	<path class="st0" d="M21.4,30.9c-0.9-0.9-1.3-2-1-3.3c0.3-1,1-1.7,1.9-2.2v6.2C21.9,31.4,21.6,31.2,21.4,30.9z"/>
	<path class="st0" d="M39.5,40.4c-0.3-0.5-0.5-1.1-0.6-1.7c1.3,0.2,2.5,1,3.3,2c0.5,0.7,0.8,1.4,0.9,2.2c-0.7-0.1-1.5-0.4-2.2-0.9
		C40.3,41.6,39.9,41,39.5,40.4z"/>
	<path class="st0" d="M25.2,25c1.4,0.3,2.3,1.4,2.8,2.8C26.7,27.3,25.6,26.4,25.2,25z"/>
	<path class="st0" d="M31.2,35.4c1.7,2.1,1.9,4.7,1.4,7.2c-0.2-2.3-1.1-4.4-3.3-5.5C29.1,37,29,37,28.8,36.9c0-0.1,0-0.1,0-0.2
		c0-1,0-2,0-3.1C29.7,34,30.6,34.6,31.2,35.4z"/>
	<path class="st0" d="M26.7,33.1c-0.1,1.1-0.3,2.2-0.5,3.4c-1.3,0-2.5,0.4-3.3,1.4c-0.4,0.5-0.6,1-0.7,1.5v-4.7
		c0.6-0.6,1.3-1.1,2.3-1.4C25.3,33,26,33,26.7,33.1z"/>
	<path class="st0" d="M24.2,47.2c1,2.6,2,5.3,2.5,8c1.2,6.3-0.4,11.3-4.4,15.7V70c0.4-1.1,0.7-2.1,0.9-3.3c0.6-3.1,0.5-6.4,0.1-9.6
		c-0.3-2-0.6-4.1-1-6.1V40.9C22.5,43,23.4,45.3,24.2,47.2z"/>
	<path class="st0" d="M22.2,40.5c0,0.2,0,0.3,0.1,0.5v10.2c-0.2-1-0.4-1.9-0.6-2.9c-0.5-2.5-1.1-5.2-1.2-7.8
		c-0.1-2.1,0.4-4.3,1.8-5.7v4.7C22.2,39.7,22.1,40.1,22.2,40.5z"/>
	<path class="st0" d="M21.6,71.6c0.3-0.5,0.5-1.1,0.7-1.6v0.9C22,71.1,21.8,71.4,21.6,71.6z"/>
	<path class="st0" d="M28.8,33.6c0,1.1,0,2.2,0,3.1c0,0.1,0,0.1,0,0.2c-0.8-0.3-1.7-0.5-2.6-0.5c0.2-1.1,0.3-2.2,0.5-3.4
		C27.5,33.1,28.2,33.3,28.8,33.6z"/>
</g>
<g>
	<path class="st0" d="M22.2,471.1C22.2,471,22.2,471,22.2,471.1l0,1C22.1,471.7,22,471.4,22.2,471.1z"/>
	<path class="st0" d="M22.2,412.5L22.2,412.5c0,0,0-0.1,0-0.1V412.5z"/>
	<path class="st0" d="M22.2,412.9c0-1.5-0.2-3.9-2.2-4.7v5.4l0-161.8h2.2L22.2,412.9z"/>
	<path class="st0" d="M39.4,477.8h1.6c-0.2,0-0.3,0-0.5,0.1C40.1,477.9,39.7,477.8,39.4,477.8z"/>
	<path class="st0" d="M320,477.8v2.2l-226.7,0c-2.4-1.8,1-2.2-3.7-2.2H320z"/>
	<path class="st0" d="M24.9,415c-0.3-0.2-0.5-0.4-0.8-0.6v-7C24.9,409.3,24.9,412.8,24.9,415z"/>
	<path class="st0" d="M22.2,411.7v0.7c0,0,0,0.1,0,0.1l-2.2,1.2v-15.2C22,400.8,22.2,407.5,22.2,411.7z"/>
	<path class="st0" d="M22.2,413.6c-0.7-0.2-1.5-0.2-2.2,0l2.2-1.2C22.2,412.9,22.2,413.3,22.2,413.6z"/>
	<path class="st0" d="M22.2,412.4v-0.7C22.2,411.9,22.2,412.1,22.2,412.4z"/>
	<path class="st0" d="M39.3,442.3c-0.2-0.9-0.3-2.2,0.5-2.7c0.7-0.5,1.9-0.3,2.7,0c2.8,1,6,3.6,7.8,6.5c-1.1-0.9-2.3-1.6-3.5-2.2
		C44.6,442.9,41.6,441.9,39.3,442.3z"/>
	<path class="st0" d="M44.8,446.2c0.4-0.5,1.1-0.7,1.7-0.3c0.5,0.4,0.7,1.1,0.3,1.7c-0.4,0.5-1.1,0.7-1.7,0.3
		C44.5,447.5,44.4,446.7,44.8,446.2z"/>
	<path class="st0" d="M38.4,444.8c-0.2-0.2-0.3-0.5-0.1-0.7c0.2-0.2,0.5-0.3,0.7-0.1c0.2,0.2,0.3,0.5,0.1,0.7
		C38.9,444.9,38.6,444.9,38.4,444.8z"/>
	<path class="st0" d="M42.7,445.6c-0.3,0.4-0.8,0.5-1.2,0.2c-0.4-0.3-0.5-0.8-0.2-1.2c0.3-0.4,0.8-0.5,1.2-0.2
		C42.8,444.8,42.9,445.3,42.7,445.6z"/>
	<path class="st0" d="M44.8,455c-0.3-3.9-3.9-6.8-7.6-8c1.3,0.1,2.5,0.4,3.6,0.8c1.5,0.5,3.1,1.3,4.3,2.2c0.8,0.6,1.8,1.6,1.7,2.6
		c0,0.1,0,0.2-0.1,0.3C45.9,453.2,45.2,454.1,44.8,455z"/>
	<path class="st0" d="M32.1,446.7c-1.6,0.2-2.9-0.7-3.9-1.8c3-0.1,5.4-2.6,6.1-5.4c2.3-8.6,2.4-17.8-1.8-25.8
		c-1.1-2-3.3-3.6-5.3-2.4c0.2-0.7,0.5-1.5,1.2-1.7c1.7-0.5,4.3,2.3,5.3,3.6c3.3,4.6,4.7,10.6,5,16.1c0.2,3.9-0.3,7.9-1.4,11.6
		C36.5,443.3,34.8,446.4,32.1,446.7z"/>
	<path class="st0" d="M26.8,420c1.3,2.8,2,6.1,2.4,9.1c0.4,2.7,0.5,5.6,0.3,8.4c-0.1,1.1-0.3,2.6-0.7,3.9c0.2-6.8-1.7-19.9-6.6-24.6
		v-1.4c0.1,0,0.2,0,0.3,0C24.6,415.9,26,418.3,26.8,420z"/>
	<path class="st0" d="M20.6,415.6c0.5-0.2,1.1-0.3,1.7-0.2v1.4C21.7,416.3,21.2,415.9,20.6,415.6z"/>
	<path class="st0" d="M33.3,428.7c0.1,0.5-0.2,1.1-0.7,1.2c-0.5,0.1-1.1-0.2-1.2-0.7c-0.1-0.5,0.2-1.1,0.7-1.2
		C32.6,427.8,33.2,428.2,33.3,428.7z"/>
	<path class="st0" d="M32.1,426.1c-0.7,0.2-1.3-0.3-1.5-0.9c-0.2-0.7,0.3-1.3,0.9-1.5c0.7-0.2,1.3,0.3,1.5,0.9
		C33.2,425.3,32.8,426,32.1,426.1z"/>
	<path class="st0" d="M31.1,421.8c-0.8,0.2-1.6-0.3-1.8-1.1c-0.2-0.8,0.3-1.6,1.1-1.8c0.8-0.2,1.6,0.3,1.8,1.1
		C32.3,420.8,31.8,421.6,31.1,421.8z"/>
	<path class="st0" d="M32.5,435.8c-0.3,0.1-0.6-0.1-0.6-0.4c-0.1-0.3,0.1-0.6,0.4-0.6c0.3-0.1,0.6,0.1,0.6,0.4
		C33,435.5,32.8,435.7,32.5,435.8z"/>
	<path class="st0" d="M32.7,433.2c-0.4,0.1-0.8-0.2-0.9-0.6c-0.1-0.4,0.2-0.8,0.6-0.9c0.4-0.1,0.8,0.2,0.9,0.6
		C33.4,432.7,33.1,433.1,32.7,433.2z"/>
	<path class="st0" d="M32.1,438c-0.2,0-0.3-0.1-0.3-0.3c0-0.2,0.1-0.3,0.3-0.3c0.2,0,0.3,0.1,0.3,0.3C32.3,437.9,32.2,438,32.1,438z
		"/>
	<path class="st0" d="M29.3,417.1c-0.9,0.2-1.8-0.3-2-1.2c-0.2-0.9,0.3-1.8,1.2-2c0.9-0.2,1.8,0.3,2,1.2
		C30.7,416,30.2,416.9,29.3,417.1z"/>
	<path class="st0" d="M23,420.7v6.4c-0.2-0.2-0.5-0.4-0.7-0.7v-6.9C22.5,419.9,22.7,420.3,23,420.7z"/>
	<path class="st0" d="M25.6,428.4v1.8c-0.3-0.4-0.5-0.8-0.8-1.1v-3.9C25.1,426.3,25.3,427.4,25.6,428.4z"/>
	<path class="st0" d="M22.2,419.5v6.9c-0.5-0.5-0.9-0.9-1.4-1.3c0,0-0.1-0.1-0.1-0.1v-7.2C21.3,418.3,21.8,418.9,22.2,419.5z"/>
	<path class="st0" d="M21.1,442.4c-0.1,0.8-0.2,1.6-0.4,2.4v-12.7C21.6,435.4,21.5,439,21.1,442.4z"/>
	<path class="st0" d="M23.8,473c1.2,0.2,2.1-0.5,2.5-1.7c0.5-1.3,0.4-3.2,0.2-4.6c0,0,0,0,0-0.1c0.7-0.1,1.4-0.3,2.1-0.5
		c0,1.8-0.2,3.7-0.6,5.2c-0.1,0.2-0.1,0.4-0.2,0.6c-1.4,0.5-2.5,1.4-2.8,2.8c-0.3,0.1-0.7,0.1-1.1,0.1c-0.6,0-1.1-0.2-1.6-0.4V472
		C22.5,472.6,23.2,472.9,23.8,473z"/>
	<path class="st0" d="M38.7,461.1c-0.7,0.1-1.5,0.1-2.2-0.1c-1.3-0.4-2.1-1.4-2.5-2.7c-1-3.5,2.9-6.8,4.7-2.4
		c-0.6,0-1.1,0.2-1.4,0.8c-0.2,0.4-0.1,1,0.2,1.4c0.7,1,2.2,0.3,2.8-0.5c2.2-2.9-2.4-6.5-5-6.9c-2.9-0.5-5,0.7-5.9,3.5
		c-0.8,2.5-0.8,6-0.8,8.7c-0.8,0.3-1.7,0.5-2.6,0.5c-0.1-0.9-0.3-1.7-0.4-2.6c-0.2-1.8-0.5-3.7-0.3-5.5c0.4-6.6,4.8-7.5,10.6-6.2
		c1.1,0.2,2.1,0.7,3.1,1.3c2.2,1.4,4.2,4,3.9,6.5c-0.8,0.1-1.5,0.4-2.2,0.9C39.6,458.5,38.9,459.8,38.7,461.1z"/>
	<path class="st0" d="M24.4,471c-0.2-0.4-0.6-0.7-1.2-0.6c-0.4,0.1-0.8,0.3-1,0.7v-3C24.1,467.3,25.9,468.9,24.4,471z"/>
	<path class="st0" d="M22.2,471.1c-0.2,0.3-0.1,0.7,0,1v2.4c-1-0.5-1.8-1.3-2.1-2.4c-0.4-1.2,0.1-2.4,1-3.3c0.4-0.4,0.8-0.6,1.1-0.8
		L22.2,471.1C22.2,471,22.2,471,22.2,471.1z"/>
	<path class="st0" d="M28.6,463c0-0.1,0-0.1,0-0.2c0.1-0.1,0.3-0.1,0.4-0.2c2.2-1.2,3.2-3.3,3.3-5.5c0.6,2.5,0.4,5.2-1.4,7.2
		c-0.6,0.8-1.5,1.4-2.4,1.8C28.6,465,28.6,464,28.6,463z"/>
	<path class="st0" d="M22.7,461.9c0.8,1,2.1,1.4,3.3,1.4c0.2,1.1,0.3,2.2,0.5,3.4c-0.7,0.1-1.5,0-2.2-0.2c-0.8-0.2-1.5-0.6-2-1.1
		v-4.2C22.4,461.5,22.5,461.7,22.7,461.9z"/>
	<path class="st0" d="M26.4,444.5c-0.5,2.8-1.5,5.4-2.5,8c-0.6,1.5-1.2,3.2-1.7,4.9v-10.1c0.3-1.6,0.6-3.2,0.8-4.7
		c0.5-4.1,0.5-8.2-0.8-12.1v-1.4C26,433.4,27.6,438.4,26.4,444.5z"/>
	<path class="st0" d="M22.2,430.5c-0.3-0.8-0.6-1.6-0.9-2.4c0.3,0.3,0.6,0.7,0.9,1V430.5z"/>
	<path class="st0" d="M21.9,459.3c-0.1,0.7,0,1.3,0.3,1.9v4.2c-1.6-1.4-2.2-3.8-2.1-6c0.1-2.6,0.7-5.3,1.2-7.8
		c0.3-1.4,0.6-2.8,0.9-4.2v10.1C22.1,458.1,22,458.7,21.9,459.3z"/>
	<path class="st0" d="M28.6,463c0,1,0,2,0,3.1c-0.7,0.3-1.4,0.5-2.1,0.5c-0.1-1.1-0.3-2.2-0.5-3.4c0.9,0,1.8-0.2,2.6-0.5
		C28.6,462.9,28.6,462.9,28.6,463z"/>
	<path class="st0" d="M92.3,476h-7c-0.2-0.3-0.4-0.6-0.6-0.8C86.9,475.1,90.4,475.1,92.3,476z"/>
	<path class="st0" d="M86.1,477.8c0.9,0,2.1,0,3.5,0L86.1,477.8C86.1,477.8,86.1,477.8,86.1,477.8z"/>
	<path class="st0" d="M86.1,477.8h3.5c4.1,0.1,9.6,0.4,11.7,2.2H86.1C86.3,479.3,86.3,478.5,86.1,477.8z"/>
	<path class="st0" d="M30.7,469.7c-0.2,0.1-0.5,0.1-0.6-0.1c-0.1-0.2-0.1-0.5,0.1-0.6c0.2-0.1,0.5-0.1,0.6,0.1
		C31,469.2,31,469.5,30.7,469.7z"/>
	<path class="st0" d="M33.2,467.8c-0.4,0.3-1,0.2-1.3-0.2c-0.3-0.4-0.2-1,0.2-1.3c0.4-0.3,1-0.2,1.3,0.2
		C33.7,466.9,33.6,467.5,33.2,467.8z"/>
	<path class="st0" d="M34.9,462.9c0.6-0.4,1.5-0.3,1.9,0.3c0.4,0.6,0.3,1.5-0.3,1.9c-0.6,0.4-1.5,0.3-1.9-0.3
		C34.1,464.2,34.3,463.3,34.9,462.9z"/>
	<path class="st0" d="M55.9,453.1c-0.6-1.2-1.3-2.4-2.2-3.5c2.8,1.7,5.5,4.9,6.5,7.8c0.3,0.8,0.5,2,0,2.7c-0.6,0.7-1.8,0.6-2.7,0.5
		C57.9,458.1,56.9,455.1,55.9,453.1z"/>
	<path class="st0" d="M52.2,453c0.5-0.4,1.3-0.3,1.7,0.3c0.4,0.5,0.3,1.3-0.3,1.7c-0.5,0.4-1.3,0.3-1.7-0.3
		C51.5,454.2,51.6,453.4,52.2,453z"/>
	<path class="st0" d="M50.6,451.4c-0.7,0.5-1.7,0.3-2.3-0.4c-0.5-0.7-0.3-1.7,0.4-2.3c0.7-0.5,1.7-0.3,2.3,0.4
		C51.5,449.8,51.4,450.8,50.6,451.4z"/>
	<path class="st0" d="M55,461.4c-0.2-0.2-0.1-0.5,0.1-0.7c0.2-0.2,0.5-0.1,0.7,0.1c0.2,0.2,0.1,0.5-0.1,0.7
		C55.5,461.6,55.2,461.6,55,461.4z"/>
	<path class="st0" d="M54.1,457.1c0.4-0.3,0.9-0.2,1.2,0.2c0.3,0.4,0.2,0.9-0.2,1.2c-0.4,0.3-0.9,0.2-1.2-0.2
		C53.6,457.9,53.7,457.4,54.1,457.1z"/>
	<path class="st0" d="M52.8,462.5c-1.2-3.6-4.1-7.3-8-7.6c0.8-0.4,1.8-1.1,2-2c0.1,0,0.2-0.1,0.3-0.1c1,0,2,1,2.6,1.7
		c1,1.2,1.7,2.8,2.2,4.3C52.4,460,52.7,461.3,52.8,462.5z"/>
	<path class="st0" d="M44.8,455c0.4-0.8,1.1-1.8,2-2C46.6,453.8,45.6,454.6,44.8,455z"/>
	<path class="st0" d="M86,467.2c-8-4.3-17.2-4.1-25.8-1.8c-2.9,0.8-5.4,3.1-5.4,6.1c-1.1-1-2-2.3-1.8-3.9c0.4-2.7,3.5-4.4,5.8-5.1
		c3.7-1.1,7.8-1.5,11.6-1.4c5.6,0.2,11.5,1.7,16.1,5c0.6,0.4,1.1,0.9,1.7,1.4c0.8,0.8,2.3,2.6,1.9,3.8c-0.2,0.7-1,1-1.7,1.2
		C89.6,470.5,88,468.3,86,467.2z"/>
	<path class="st0" d="M83.2,477.8c-4.5-5.1-18-7.1-24.9-6.9c1.3-0.4,2.8-0.6,3.9-0.7c2.8-0.2,5.6-0.1,8.4,0.3c3,0.4,6.3,1.1,9.1,2.4
		c1.8,0.8,4.1,2.2,4.6,4.2c0,0.2,0.1,0.4,0.1,0.6H83.2z"/>
	<path class="st0" d="M84.2,479.2c-0.2-0.5-0.6-1-1-1.4h1.2C84.4,478.2,84.3,478.7,84.2,479.2z"/>
	<path class="st0" d="M67.4,466.5c0.4,0.1,0.7,0.5,0.6,0.9c-0.1,0.4-0.5,0.7-0.9,0.6c-0.4-0.1-0.7-0.5-0.6-0.9
		C66.6,466.6,67,466.4,67.4,466.5z"/>
	<path class="st0" d="M71,466.5c0.5,0.1,0.9,0.7,0.7,1.2c-0.1,0.5-0.7,0.9-1.2,0.7c-0.5-0.1-0.9-0.7-0.7-1.2
		C70,466.7,70.5,466.3,71,466.5z"/>
	<path class="st0" d="M76,468.2c-0.2,0.7-0.8,1.1-1.5,0.9c-0.7-0.2-1.1-0.8-0.9-1.5c0.2-0.7,0.8-1.1,1.5-0.9
		C75.8,466.9,76.2,467.5,76,468.2z"/>
	<path class="st0" d="M78,468.7c0.2-0.8,1-1.3,1.8-1.1c0.8,0.2,1.3,1,1.1,1.8c-0.2,0.8-1,1.3-1.8,1.1
		C78.3,470.3,77.8,469.5,78,468.7z"/>
	<path class="st0" d="M62.3,467.7c0,0.2-0.1,0.3-0.3,0.3c-0.2,0-0.3-0.1-0.3-0.3c0-0.2,0.1-0.3,0.3-0.3
		C62.2,467.4,62.3,467.5,62.3,467.7z"/>
	<path class="st0" d="M84.7,469.2c0.9,0.2,1.5,1.1,1.2,2c-0.2,0.9-1.1,1.5-2,1.2c-0.9-0.2-1.5-1.1-1.2-2
		C82.8,469.6,83.8,469,84.7,469.2z"/>
	<path class="st0" d="M64.6,466.8c0.3,0.1,0.5,0.4,0.4,0.6c-0.1,0.3-0.4,0.5-0.6,0.4c-0.3-0.1-0.5-0.4-0.4-0.6
		C64,467,64.3,466.8,64.6,466.8z"/>
	<path class="st0" d="M72.7,476.8h6.4c0.5,0.3,1.1,0.6,1.6,1h-7.1C73.3,477.4,73,477.1,72.7,476.8z"/>
	<path class="st0" d="M69.5,474.2h1.8c1.1,0.2,2.1,0.5,3.2,0.8h-3.9C70.2,474.7,69.8,474.4,69.5,474.2z"/>
	<path class="st0" d="M55,479c0.8-0.1,1.6-0.3,2.4-0.4c3.4-0.4,6.9-0.5,10.2,0.4H55z"/>
	<path class="st0" d="M80.6,477.8c0.5,0.4,1,0.8,1.3,1.3h-7.2c0,0-0.1-0.1-0.1-0.1c-0.3-0.4-0.7-0.8-1.1-1.2H80.6z"/>
	<path class="st0" d="M25,474.8c1.4-0.3,2.3-1.4,2.8-2.8c0.2-0.1,0.4-0.1,0.6-0.2c1.6-0.4,3.4-0.5,5.2-0.6c-0.3,0.7-0.5,1.4-0.5,2.1
		c0,0,0,0-0.1,0c-1.4-0.2-3.3-0.3-4.6,0.2c-1.1,0.5-1.8,1.3-1.7,2.5c0.1,0.9,1,2,2,1.6c0.3-0.1,0.5-0.4,0.6-0.7
		c0.3-0.7,0-1.2-0.5-1.5c2.2-1.6,3.8,0.5,2.8,2.4h-6.2c-0.3-0.6-0.5-1.2-0.6-1.9C24.8,475.5,24.9,475.1,25,474.8z"/>
	<path class="st0" d="M45.6,470.4c2.8-0.9,4-3,3.5-5.9c-0.4-2.6-4.1-7.2-6.9-5c-0.8,0.6-1.4,2.1-0.5,2.8c0.3,0.2,0.7,0.3,1,0.3
		c0.9-0.1,1.2-0.7,1.2-1.5c4.4,1.8,1.1,5.7-2.4,4.7c-1.3-0.4-2.3-1.2-2.7-2.5c-0.2-0.7-0.3-1.5-0.1-2.2c0.6-0.1,1.2-0.3,1.7-0.6
		c0.6-0.3,1.1-0.8,1.6-1.4c0.5-0.7,0.8-1.5,0.9-2.2c0.2,0,0.4,0,0.6,0c3.5,0.1,6.5,3.8,7.2,7c1.3,5.8,0.4,10.2-6.2,10.6
		c-1.8,0.1-3.7-0.1-5.5-0.3c-0.9-0.1-1.7-0.3-2.6-0.4c0-0.9,0.2-1.8,0.5-2.6C39.6,471.2,43.1,471.2,45.6,470.4z"/>
	<path class="st0" d="M30.9,478.6c-0.9,0.9-2,1.3-3.3,1c-1-0.3-1.7-1-2.2-1.9h6.2C31.4,478.1,31.2,478.4,30.9,478.6z"/>
	<path class="st0" d="M40.4,460.5c-0.5,0.3-1.1,0.5-1.7,0.6c0.2-1.3,1-2.5,2-3.3c0.7-0.5,1.4-0.8,2.2-0.9c-0.1,0.7-0.4,1.5-0.9,2.2
		C41.6,459.7,41,460.1,40.4,460.5z"/>
	<path class="st0" d="M25,474.8c0.3-1.4,1.4-2.3,2.8-2.8C27.3,473.3,26.4,474.4,25,474.8z"/>
	<path class="st0" d="M35.4,468.8c2.1-1.7,4.7-1.9,7.2-1.4c-2.3,0.2-4.4,1.1-5.5,3.3c-0.1,0.1-0.1,0.3-0.2,0.4c-0.1,0-0.1,0-0.2,0
		c-1,0-2,0-3.1,0C34,470.3,34.6,469.4,35.4,468.8z"/>
	<path class="st0" d="M33.1,473.3c1.1,0.1,2.2,0.3,3.4,0.5c0,1.3,0.4,2.5,1.4,3.3c0.5,0.4,1,0.6,1.5,0.7h-4.7
		c-0.6-0.6-1.1-1.3-1.4-2.3C33,474.7,33,474,33.1,473.3z"/>
	<path class="st0" d="M47.2,475.8c2.6-1,5.3-2,8-2.5c6.3-1.2,11.3,0.4,15.7,4.4H70c-1.1-0.4-2.1-0.7-3.3-0.9
		c-3.1-0.6-6.4-0.5-9.6-0.1c-2,0.3-4.1,0.6-6.1,1H40.9C43,477.5,45.3,476.6,47.2,475.8z"/>
	<path class="st0" d="M40.5,477.8c0.2,0,0.3,0,0.5-0.1h10.2c-1,0.2-1.9,0.4-2.9,0.6c-2.5,0.5-5.2,1.1-7.8,1.2
		c-2.1,0.1-4.3-0.4-5.7-1.8h4.7C39.7,477.8,40.1,477.9,40.5,477.8z"/>
	<path class="st0" d="M71.6,478.4c-0.5-0.3-1.1-0.5-1.6-0.7h0.9C71.1,478,71.4,478.2,71.6,478.4z"/>
	<path class="st0" d="M33.6,471.2c1.1,0,2.2,0,3.1,0c0.1,0,0.1,0,0.2,0c-0.3,0.8-0.5,1.7-0.5,2.6c-1.1-0.2-2.2-0.3-3.4-0.5
		C33.1,472.5,33.3,471.8,33.6,471.2z"/>
</g>
<g>
	<path class="st0" d="M471.1,477.8C471,477.8,471,477.8,471.1,477.8l1,0C471.7,477.9,471.4,478,471.1,477.8z"/>
	<path class="st0" d="M412.5,477.8L412.5,477.8c0,0-0.1,0-0.1,0H412.5z"/>
	<path class="st0" d="M412.9,477.8c-1.5,0-3.9,0.2-4.7,2.2h5.4l-161.8,0v-2.2L412.9,477.8z"/>
	<path class="st0" d="M477.8,460.6v-1.6c0,0.2,0,0.3,0.1,0.5C477.9,459.9,477.8,460.3,477.8,460.6z"/>
	<path class="st0" d="M477.8,180h2.2l0,226.7c-1.8,2.4-2.2-1-2.2,3.7V180z"/>
	<path class="st0" d="M415,475.1c-0.2,0.3-0.4,0.5-0.6,0.8h-7C409.3,475.1,412.8,475.1,415,475.1z"/>
	<path class="st0" d="M411.7,477.8h0.7c0,0,0.1,0,0.1,0l1.2,2.2h-15.2C400.8,478,407.5,477.8,411.7,477.8z"/>
	<path class="st0" d="M413.6,477.8c-0.2,0.7-0.2,1.5,0,2.2l-1.2-2.2C412.9,477.8,413.3,477.8,413.6,477.8z"/>
	<path class="st0" d="M412.4,477.8h-0.7C411.9,477.8,412.1,477.8,412.4,477.8z"/>
	<path class="st0" d="M442.3,460.7c-0.9,0.2-2.2,0.3-2.7-0.5c-0.5-0.7-0.3-1.9,0-2.7c1-2.8,3.6-6,6.5-7.8c-0.9,1.1-1.6,2.3-2.2,3.5
		C442.9,455.4,441.9,458.4,442.3,460.7z"/>
	<path class="st0" d="M446.2,455.2c-0.5-0.4-0.7-1.1-0.3-1.7c0.4-0.5,1.1-0.7,1.7-0.3c0.5,0.4,0.7,1.1,0.3,1.7
		C447.5,455.5,446.7,455.6,446.2,455.2z"/>
	<path class="st0" d="M444.8,461.6c-0.2,0.2-0.5,0.3-0.7,0.1c-0.2-0.2-0.3-0.5-0.1-0.7c0.2-0.2,0.5-0.3,0.7-0.1
		C444.9,461.1,444.9,461.4,444.8,461.6z"/>
	<path class="st0" d="M445.6,457.3c0.4,0.3,0.5,0.8,0.2,1.2c-0.3,0.4-0.8,0.5-1.2,0.2c-0.4-0.3-0.5-0.8-0.2-1.2
		C444.8,457.2,445.3,457.1,445.6,457.3z"/>
	<path class="st0" d="M455,455.2c-3.9,0.3-6.8,3.9-8,7.6c0.1-1.3,0.4-2.5,0.8-3.6c0.5-1.5,1.3-3.1,2.2-4.3c0.6-0.8,1.6-1.8,2.6-1.7
		c0.1,0,0.2,0,0.3,0.1C453.2,454.1,454.1,454.8,455,455.2z"/>
	<path class="st0" d="M446.7,467.9c0.2,1.6-0.7,2.9-1.8,3.9c-0.1-3-2.6-5.4-5.4-6.1c-8.6-2.3-17.8-2.4-25.8,1.8
		c-2,1.1-3.6,3.3-2.4,5.3c-0.7-0.2-1.5-0.5-1.7-1.2c-0.5-1.7,2.3-4.3,3.6-5.3c4.6-3.3,10.6-4.7,16.1-5c3.9-0.2,7.9,0.3,11.6,1.4
		C443.3,463.5,446.4,465.2,446.7,467.9z"/>
	<path class="st0" d="M420,473.2c2.8-1.3,6.1-2,9.1-2.4c2.7-0.4,5.6-0.5,8.4-0.3c1.1,0.1,2.6,0.3,3.9,0.7
		c-6.8-0.2-19.9,1.7-24.6,6.6h-1.4c0-0.1,0-0.2,0-0.3C415.9,475.4,418.3,474,420,473.2z"/>
	<path class="st0" d="M415.6,479.4c-0.2-0.5-0.3-1.1-0.2-1.7h1.4C416.3,478.3,415.9,478.8,415.6,479.4z"/>
	<path class="st0" d="M428.7,466.7c0.5-0.1,1.1,0.2,1.2,0.7c0.1,0.5-0.2,1.1-0.7,1.2c-0.5,0.1-1.1-0.2-1.2-0.7
		C427.8,467.4,428.2,466.8,428.7,466.7z"/>
	<path class="st0" d="M426.1,467.9c0.2,0.7-0.3,1.3-0.9,1.5c-0.7,0.2-1.3-0.3-1.5-0.9c-0.2-0.7,0.3-1.3,0.9-1.5
		C425.3,466.8,426,467.2,426.1,467.9z"/>
	<path class="st0" d="M421.8,468.9c0.2,0.8-0.3,1.6-1.1,1.8c-0.8,0.2-1.6-0.3-1.8-1.1c-0.2-0.8,0.3-1.6,1.1-1.8
		C420.8,467.7,421.6,468.2,421.8,468.9z"/>
	<path class="st0" d="M435.8,467.5c0.1,0.3-0.1,0.6-0.4,0.6c-0.3,0.1-0.6-0.1-0.6-0.4c-0.1-0.3,0.1-0.6,0.4-0.6
		C435.5,467,435.7,467.2,435.8,467.5z"/>
	<path class="st0" d="M433.2,467.3c0.1,0.4-0.2,0.8-0.6,0.9c-0.4,0.1-0.8-0.2-0.9-0.6c-0.1-0.4,0.2-0.8,0.6-0.9
		C432.7,466.6,433.1,466.9,433.2,467.3z"/>
	<path class="st0" d="M438,467.9c0,0.2-0.1,0.3-0.3,0.3c-0.2,0-0.3-0.1-0.3-0.3c0-0.2,0.1-0.3,0.3-0.3
		C437.9,467.7,438,467.8,438,467.9z"/>
	<path class="st0" d="M417.1,470.7c0.2,0.9-0.3,1.8-1.2,2c-0.9,0.2-1.8-0.3-2-1.2c-0.2-0.9,0.3-1.8,1.2-2
		C416,469.3,416.9,469.8,417.1,470.7z"/>
	<path class="st0" d="M420.7,477h6.4c-0.2,0.2-0.4,0.5-0.7,0.7h-6.9C419.9,477.5,420.3,477.3,420.7,477z"/>
	<path class="st0" d="M428.4,474.4h1.8c-0.4,0.3-0.8,0.5-1.1,0.8h-3.9C426.3,474.9,427.4,474.7,428.4,474.4z"/>
	<path class="st0" d="M419.5,477.8h6.9c-0.5,0.5-0.9,0.9-1.3,1.4c0,0-0.1,0.1-0.1,0.1h-7.2C418.3,478.7,418.9,478.2,419.5,477.8z"/>
	<path class="st0" d="M442.4,478.9c0.8,0.1,1.6,0.2,2.4,0.4h-12.7C435.4,478.4,439,478.5,442.4,478.9z"/>
	<path class="st0" d="M473,476.2c0.2-1.2-0.5-2.1-1.7-2.5c-1.3-0.5-3.2-0.4-4.6-0.2c0,0,0,0-0.1,0c-0.1-0.7-0.3-1.4-0.5-2.1
		c1.8,0,3.7,0.2,5.2,0.6c0.2,0.1,0.4,0.1,0.6,0.2c0.5,1.4,1.4,2.5,2.8,2.8c0.1,0.3,0.1,0.7,0.1,1.1c0,0.6-0.2,1.1-0.4,1.6H472
		C472.6,477.5,472.9,476.8,473,476.2z"/>
	<path class="st0" d="M461.1,461.3c0.1,0.7,0.1,1.5-0.1,2.2c-0.4,1.3-1.4,2.1-2.7,2.5c-3.5,1-6.8-2.9-2.4-4.7c0,0.6,0.2,1.1,0.8,1.4
		c0.4,0.2,1,0.1,1.4-0.2c1-0.7,0.3-2.2-0.5-2.8c-2.9-2.2-6.5,2.4-6.9,5c-0.5,2.9,0.7,5,3.5,5.9c2.5,0.8,6,0.8,8.7,0.8
		c0.3,0.8,0.5,1.7,0.5,2.6c-0.9,0.1-1.7,0.3-2.6,0.4c-1.8,0.2-3.7,0.5-5.5,0.3c-6.6-0.4-7.5-4.8-6.2-10.6c0.2-1.1,0.7-2.1,1.3-3.1
		c1.4-2.2,4-4.2,6.5-3.9c0.1,0.8,0.4,1.5,0.9,2.2C458.5,460.4,459.8,461.1,461.1,461.3z"/>
	<path class="st0" d="M471,475.6c-0.4,0.2-0.7,0.6-0.6,1.2c0.1,0.4,0.3,0.8,0.7,1h-3C467.3,475.9,468.9,474.1,471,475.6z"/>
	<path class="st0" d="M471.1,477.8c0.3,0.2,0.7,0.1,1,0h2.4c-0.5,1-1.3,1.8-2.4,2.1c-1.2,0.4-2.4-0.1-3.3-1
		c-0.4-0.4-0.6-0.8-0.8-1.1L471.1,477.8C471,477.8,471,477.8,471.1,477.8z"/>
	<path class="st0" d="M463,471.4c-0.1,0-0.1,0-0.2,0c-0.1-0.1-0.1-0.3-0.2-0.4c-1.2-2.2-3.3-3.2-5.5-3.3c2.5-0.6,5.2-0.4,7.2,1.4
		c0.8,0.6,1.4,1.5,1.8,2.4C465,471.4,464,471.4,463,471.4z"/>
	<path class="st0" d="M461.9,477.3c1-0.8,1.4-2.1,1.4-3.3c1.1-0.2,2.2-0.3,3.4-0.5c0.1,0.7,0,1.5-0.2,2.2c-0.2,0.8-0.6,1.5-1.1,2
		h-4.2C461.5,477.6,461.7,477.5,461.9,477.3z"/>
	<path class="st0" d="M444.5,473.6c2.8,0.5,5.4,1.5,8,2.5c1.5,0.6,3.2,1.2,4.9,1.7h-10.1c-1.6-0.3-3.2-0.6-4.7-0.8
		c-4.1-0.5-8.2-0.5-12.1,0.8h-1.4C433.4,474,438.4,472.4,444.5,473.6z"/>
	<path class="st0" d="M430.5,477.8c-0.8,0.3-1.6,0.6-2.4,0.9c0.3-0.3,0.7-0.6,1-0.9H430.5z"/>
	<path class="st0" d="M459.3,478.1c0.7,0.1,1.3,0,1.9-0.3h4.2c-1.4,1.6-3.8,2.2-6,2.1c-2.6-0.1-5.3-0.7-7.8-1.2
		c-1.4-0.3-2.8-0.6-4.2-0.9h10.1C458.1,477.9,458.7,478,459.3,478.1z"/>
	<path class="st0" d="M463,471.4c1,0,2,0,3.1,0c0.3,0.7,0.5,1.4,0.5,2.1c-1.1,0.1-2.2,0.3-3.4,0.5c0-0.9-0.2-1.8-0.5-2.6
		C462.9,471.4,462.9,471.4,463,471.4z"/>
	<path class="st0" d="M476,407.7v7c-0.3,0.2-0.6,0.4-0.8,0.6C475.1,413.1,475.1,409.6,476,407.7z"/>
	<path class="st0" d="M477.8,413.9c0-0.9,0-2.1,0-3.5L477.8,413.9C477.8,413.9,477.8,413.9,477.8,413.9z"/>
	<path class="st0" d="M477.8,413.9v-3.5c0.1-4.1,0.4-9.6,2.2-11.7v15.2C479.3,413.7,478.5,413.7,477.8,413.9z"/>
	<path class="st0" d="M469.7,469.3c0.1,0.2,0.1,0.5-0.1,0.6c-0.2,0.1-0.5,0.1-0.6-0.1c-0.1-0.2-0.1-0.5,0.1-0.6
		C469.2,469,469.5,469,469.7,469.3z"/>
	<path class="st0" d="M467.8,466.8c0.3,0.4,0.2,1-0.2,1.3c-0.4,0.3-1,0.2-1.3-0.2c-0.3-0.4-0.2-1,0.2-1.3
		C466.9,466.3,467.5,466.4,467.8,466.8z"/>
	<path class="st0" d="M462.9,465.1c-0.4-0.6-0.3-1.5,0.3-1.9c0.6-0.4,1.5-0.3,1.9,0.3c0.4,0.6,0.3,1.5-0.3,1.9
		C464.2,465.9,463.3,465.7,462.9,465.1z"/>
	<path class="st0" d="M453.1,444.1c-1.2,0.6-2.4,1.3-3.5,2.2c1.7-2.8,4.9-5.5,7.8-6.5c0.8-0.3,2-0.5,2.7,0c0.7,0.6,0.6,1.8,0.5,2.7
		C458.1,442.1,455.1,443.1,453.1,444.1z"/>
	<path class="st0" d="M453,447.8c-0.4-0.5-0.3-1.3,0.3-1.7c0.5-0.4,1.3-0.3,1.7,0.3c0.4,0.5,0.3,1.3-0.3,1.7
		C454.2,448.5,453.4,448.4,453,447.8z"/>
	<path class="st0" d="M451.4,449.4c0.5,0.7,0.3,1.7-0.4,2.3c-0.7,0.5-1.7,0.3-2.3-0.4c-0.5-0.7-0.3-1.7,0.4-2.3
		C449.8,448.5,450.8,448.6,451.4,449.4z"/>
	<path class="st0" d="M461.4,445c-0.2,0.2-0.5,0.1-0.7-0.1c-0.2-0.2-0.1-0.5,0.1-0.7c0.2-0.2,0.5-0.1,0.7,0.1
		C461.6,444.5,461.6,444.8,461.4,445z"/>
	<path class="st0" d="M457.1,445.9c-0.3-0.4-0.2-0.9,0.2-1.2c0.4-0.3,0.9-0.2,1.2,0.2c0.3,0.4,0.2,0.9-0.2,1.2
		C457.9,446.4,457.4,446.3,457.1,445.9z"/>
	<path class="st0" d="M462.5,447.2c-3.6,1.2-7.3,4.1-7.6,8c-0.4-0.8-1.1-1.8-2-2c0-0.1-0.1-0.2-0.1-0.3c0-1,1-2,1.7-2.6
		c1.2-1,2.8-1.7,4.3-2.2C460,447.6,461.3,447.3,462.5,447.2z"/>
	<path class="st0" d="M455,455.2c-0.8-0.4-1.8-1.1-2-2C453.8,453.4,454.6,454.4,455,455.2z"/>
	<path class="st0" d="M467.2,414c-4.3,8-4.1,17.2-1.8,25.8c0.8,2.9,3.1,5.4,6.1,5.4c-1,1.1-2.3,2-3.9,1.8c-2.7-0.4-4.4-3.5-5.1-5.8
		c-1.1-3.7-1.5-7.8-1.4-11.6c0.2-5.6,1.7-11.5,5-16.1c0.4-0.6,0.9-1.1,1.4-1.7c0.8-0.8,2.6-2.3,3.8-1.9c0.7,0.2,1,1,1.2,1.7
		C470.5,410.4,468.3,412,467.2,414z"/>
	<path class="st0" d="M477.8,416.8c-5.1,4.5-7.1,18-6.9,24.9c-0.4-1.3-0.6-2.8-0.7-3.9c-0.2-2.8-0.1-5.6,0.3-8.4
		c0.4-3,1.1-6.3,2.4-9.1c0.8-1.8,2.2-4.1,4.2-4.6c0.2,0,0.4-0.1,0.6-0.1V416.8z"/>
	<path class="st0" d="M479.2,415.8c-0.5,0.2-1,0.6-1.4,1v-1.2C478.2,415.6,478.7,415.7,479.2,415.8z"/>
	<path class="st0" d="M466.5,432.6c0.1-0.4,0.5-0.7,0.9-0.6c0.4,0.1,0.7,0.5,0.6,0.9c-0.1,0.4-0.5,0.7-0.9,0.6
		C466.6,433.4,466.4,433,466.5,432.6z"/>
	<path class="st0" d="M466.5,429c0.1-0.5,0.7-0.9,1.2-0.7c0.5,0.1,0.9,0.7,0.7,1.2c-0.1,0.5-0.7,0.9-1.2,0.7
		C466.7,430,466.3,429.5,466.5,429z"/>
	<path class="st0" d="M468.2,424c0.7,0.2,1.1,0.8,0.9,1.5c-0.2,0.7-0.8,1.1-1.5,0.9c-0.7-0.2-1.1-0.8-0.9-1.5
		C466.9,424.2,467.5,423.8,468.2,424z"/>
	<path class="st0" d="M468.7,422c-0.8-0.2-1.3-1-1.1-1.8c0.2-0.8,1-1.3,1.8-1.1c0.8,0.2,1.3,1,1.1,1.8
		C470.3,421.7,469.5,422.2,468.7,422z"/>
	<path class="st0" d="M467.7,437.7c0.2,0,0.3,0.1,0.3,0.3c0,0.2-0.1,0.3-0.3,0.3c-0.2,0-0.3-0.1-0.3-0.3
		C467.4,437.8,467.5,437.7,467.7,437.7z"/>
	<path class="st0" d="M469.2,415.3c0.2-0.9,1.1-1.5,2-1.2c0.9,0.2,1.5,1.1,1.2,2c-0.2,0.9-1.1,1.5-2,1.2
		C469.6,417.2,469,416.2,469.2,415.3z"/>
	<path class="st0" d="M466.8,435.4c0.1-0.3,0.4-0.5,0.6-0.4c0.3,0.1,0.5,0.4,0.4,0.6c-0.1,0.3-0.4,0.5-0.6,0.4
		C467,436,466.8,435.7,466.8,435.4z"/>
	<path class="st0" d="M476.8,427.3v-6.4c0.3-0.5,0.6-1.1,1-1.6v7.1C477.4,426.7,477.1,427,476.8,427.3z"/>
	<path class="st0" d="M474.2,430.5v-1.8c0.2-1.1,0.5-2.1,0.8-3.2v3.9C474.7,429.8,474.4,430.2,474.2,430.5z"/>
	<path class="st0" d="M479,445c-0.1-0.8-0.3-1.6-0.4-2.4c-0.4-3.4-0.5-6.9,0.4-10.2V445z"/>
	<path class="st0" d="M477.8,419.4c0.4-0.5,0.8-1,1.3-1.3v7.2c0,0-0.1,0.1-0.1,0.1c-0.4,0.3-0.8,0.7-1.2,1.1V419.4z"/>
	<path class="st0" d="M474.8,475c-0.3-1.4-1.4-2.3-2.8-2.8c-0.1-0.2-0.1-0.4-0.2-0.6c-0.4-1.6-0.5-3.4-0.6-5.2
		c0.7,0.3,1.4,0.5,2.1,0.5c0,0,0,0,0,0.1c-0.2,1.4-0.3,3.3,0.2,4.6c0.5,1.1,1.3,1.8,2.5,1.7c0.9-0.1,2-1,1.6-2
		c-0.1-0.3-0.4-0.5-0.7-0.6c-0.7-0.3-1.2,0-1.5,0.5c-1.6-2.2,0.5-3.8,2.4-2.8v6.2c-0.6,0.3-1.2,0.5-1.9,0.6
		C475.5,475.2,475.1,475.1,474.8,475z"/>
	<path class="st0" d="M470.4,454.4c-0.9-2.8-3-4-5.9-3.5c-2.6,0.4-7.2,4.1-5,6.9c0.6,0.8,2.1,1.4,2.8,0.5c0.2-0.3,0.3-0.7,0.3-1
		c-0.1-0.9-0.7-1.2-1.5-1.2c1.8-4.4,5.7-1.1,4.7,2.4c-0.4,1.3-1.2,2.3-2.5,2.7c-0.7,0.2-1.5,0.3-2.2,0.1c-0.1-0.6-0.3-1.2-0.6-1.7
		c-0.3-0.6-0.8-1.1-1.4-1.6c-0.7-0.5-1.5-0.8-2.2-0.9c0-0.2,0-0.4,0-0.6c0.1-3.5,3.8-6.5,7-7.2c5.8-1.3,10.2-0.4,10.6,6.2
		c0.1,1.8-0.1,3.7-0.3,5.5c-0.1,0.9-0.3,1.7-0.4,2.6c-0.9,0-1.8-0.2-2.6-0.5C471.2,460.4,471.2,456.9,470.4,454.4z"/>
	<path class="st0" d="M478.6,469.1c0.9,0.9,1.3,2,1,3.3c-0.3,1-1,1.7-1.9,2.2v-6.2C478.1,468.6,478.4,468.8,478.6,469.1z"/>
	<path class="st0" d="M460.5,459.6c0.3,0.5,0.5,1.1,0.6,1.7c-1.3-0.2-2.5-1-3.3-2c-0.5-0.7-0.8-1.4-0.9-2.2c0.7,0.1,1.5,0.4,2.2,0.9
		C459.7,458.4,460.1,459,460.5,459.6z"/>
	<path class="st0" d="M474.8,475c-1.4-0.3-2.3-1.4-2.8-2.8C473.3,472.7,474.4,473.6,474.8,475z"/>
	<path class="st0" d="M468.8,464.6c-1.7-2.1-1.9-4.7-1.4-7.2c0.2,2.3,1.1,4.4,3.3,5.5c0.1,0.1,0.3,0.1,0.4,0.2c0,0.1,0,0.1,0,0.2
		c0,1,0,2,0,3.1C470.3,466,469.4,465.4,468.8,464.6z"/>
	<path class="st0" d="M473.3,466.9c0.1-1.1,0.3-2.2,0.5-3.4c1.3,0,2.5-0.4,3.3-1.4c0.4-0.5,0.6-1,0.7-1.5v4.7
		c-0.6,0.6-1.3,1.1-2.3,1.4C474.7,467,474,467,473.3,466.9z"/>
	<path class="st0" d="M475.8,452.8c-1-2.6-2-5.3-2.5-8c-1.2-6.3,0.4-11.3,4.4-15.7v0.9c-0.4,1.1-0.7,2.1-0.9,3.3
		c-0.6,3.1-0.5,6.4-0.1,9.6c0.3,2,0.6,4.1,1,6.1v10.2C477.5,457,476.6,454.7,475.8,452.8z"/>
	<path class="st0" d="M477.8,459.5c0-0.2,0-0.3-0.1-0.5v-10.2c0.2,1,0.4,1.9,0.6,2.9c0.5,2.5,1.1,5.2,1.2,7.8
		c0.1,2.1-0.4,4.3-1.8,5.7v-4.7C477.8,460.3,477.9,459.9,477.8,459.5z"/>
	<path class="st0" d="M478.4,428.4c-0.3,0.5-0.5,1.1-0.7,1.6v-0.9C478,428.9,478.2,428.6,478.4,428.4z"/>
	<path class="st0" d="M471.2,466.4c0-1.1,0-2.2,0-3.1c0-0.1,0-0.1,0-0.2c0.8,0.3,1.7,0.5,2.6,0.5c-0.2,1.1-0.3,2.2-0.5,3.4
		C472.5,466.9,471.8,466.7,471.2,466.4z"/>
</g>
<g>
	<path class="st0" d="M477.8,28.9C477.8,29,477.8,29,477.8,28.9l0-1C477.9,28.3,478,28.6,477.8,28.9z"/>
	<path class="st0" d="M477.8,87.5L477.8,87.5c0,0,0,0.1,0,0.1V87.5z"/>
	<path class="st0" d="M477.8,87.1c0,1.5,0.2,3.9,2.2,4.7v-5.4l0,161.8h-2.2L477.8,87.1z"/>
	<path class="st0" d="M460.6,22.2h-1.6c0.2,0,0.3,0,0.5-0.1C459.9,22.1,460.3,22.2,460.6,22.2z"/>
	<path class="st0" d="M180,22.2V20l226.7,0c2.4,1.8-1,2.2,3.7,2.2H180z"/>
	<path class="st0" d="M475.1,85c0.3,0.2,0.5,0.4,0.8,0.6v7C475.1,90.7,475.1,87.2,475.1,85z"/>
	<path class="st0" d="M477.8,88.3v-0.7c0,0,0-0.1,0-0.1l2.2-1.2v15.2C478,99.2,477.8,92.5,477.8,88.3z"/>
	<path class="st0" d="M477.8,86.4c0.7,0.2,1.5,0.2,2.2,0l-2.2,1.2C477.8,87.1,477.8,86.7,477.8,86.4z"/>
	<path class="st0" d="M477.8,87.6v0.7C477.8,88.1,477.8,87.9,477.8,87.6z"/>
	<path class="st0" d="M460.7,57.7c0.2,0.9,0.3,2.2-0.5,2.7c-0.7,0.5-1.9,0.3-2.7,0c-2.8-1-6-3.6-7.8-6.5c1.1,0.9,2.3,1.6,3.5,2.2
		C455.4,57.1,458.4,58.1,460.7,57.7z"/>
	<path class="st0" d="M455.2,53.8c-0.4,0.5-1.1,0.7-1.7,0.3c-0.5-0.4-0.7-1.1-0.3-1.7c0.4-0.5,1.1-0.7,1.7-0.3
		C455.5,52.5,455.6,53.3,455.2,53.8z"/>
	<path class="st0" d="M461.6,55.2c0.2,0.2,0.3,0.5,0.1,0.7c-0.2,0.2-0.5,0.3-0.7,0.1c-0.2-0.2-0.3-0.5-0.1-0.7
		C461.1,55.1,461.4,55.1,461.6,55.2z"/>
	<path class="st0" d="M457.3,54.4c0.3-0.4,0.8-0.5,1.2-0.2c0.4,0.3,0.5,0.8,0.2,1.2c-0.3,0.4-0.8,0.5-1.2,0.2
		C457.2,55.2,457.1,54.7,457.3,54.4z"/>
	<path class="st0" d="M455.2,45c0.3,3.9,3.9,6.8,7.6,8c-1.3-0.1-2.5-0.4-3.6-0.8c-1.5-0.5-3.1-1.3-4.3-2.2c-0.8-0.6-1.8-1.6-1.7-2.6
		c0-0.1,0-0.2,0.1-0.3C454.1,46.8,454.8,45.9,455.2,45z"/>
	<path class="st0" d="M467.9,53.3c1.6-0.2,2.9,0.7,3.9,1.8c-3,0.1-5.4,2.6-6.1,5.4c-2.3,8.6-2.4,17.8,1.8,25.8
		c1.1,2,3.3,3.6,5.3,2.4c-0.2,0.7-0.5,1.5-1.2,1.7c-1.7,0.5-4.3-2.3-5.3-3.6c-3.3-4.6-4.7-10.6-5-16.1c-0.2-3.9,0.3-7.9,1.4-11.6
		C463.5,56.7,465.2,53.6,467.9,53.3z"/>
	<path class="st0" d="M473.2,80c-1.3-2.8-2-6.1-2.4-9.1c-0.4-2.7-0.5-5.6-0.3-8.4c0.1-1.1,0.3-2.6,0.7-3.9
		c-0.2,6.8,1.7,19.9,6.6,24.6v1.4c-0.1,0-0.2,0-0.3,0C475.4,84.1,474,81.7,473.2,80z"/>
	<path class="st0" d="M479.4,84.4c-0.5,0.2-1.1,0.3-1.7,0.2v-1.4C478.3,83.7,478.8,84.1,479.4,84.4z"/>
	<path class="st0" d="M466.7,71.3c-0.1-0.5,0.2-1.1,0.7-1.2c0.5-0.1,1.1,0.2,1.2,0.7c0.1,0.5-0.2,1.1-0.7,1.2
		C467.4,72.2,466.8,71.8,466.7,71.3z"/>
	<path class="st0" d="M467.9,73.9c0.7-0.2,1.3,0.3,1.5,0.9c0.2,0.7-0.3,1.3-0.9,1.5c-0.7,0.2-1.3-0.3-1.5-0.9
		C466.8,74.7,467.2,74,467.9,73.9z"/>
	<path class="st0" d="M468.9,78.2c0.8-0.2,1.6,0.3,1.8,1.1c0.2,0.8-0.3,1.6-1.1,1.8c-0.8,0.2-1.6-0.3-1.8-1.1
		C467.7,79.2,468.2,78.4,468.9,78.2z"/>
	<path class="st0" d="M467.5,64.2c0.3-0.1,0.6,0.1,0.6,0.4c0.1,0.3-0.1,0.6-0.4,0.6c-0.3,0.1-0.6-0.1-0.6-0.4
		C467,64.5,467.2,64.3,467.5,64.2z"/>
	<path class="st0" d="M467.3,66.8c0.4-0.1,0.8,0.2,0.9,0.6c0.1,0.4-0.2,0.8-0.6,0.9c-0.4,0.1-0.8-0.2-0.9-0.6
		C466.6,67.3,466.9,66.9,467.3,66.8z"/>
	<path class="st0" d="M467.9,62c0.2,0,0.3,0.1,0.3,0.3c0,0.2-0.1,0.3-0.3,0.3c-0.2,0-0.3-0.1-0.3-0.3C467.7,62.1,467.8,62,467.9,62z
		"/>
	<path class="st0" d="M470.7,82.9c0.9-0.2,1.8,0.3,2,1.2c0.2,0.9-0.3,1.8-1.2,2c-0.9,0.2-1.8-0.3-2-1.2
		C469.3,84,469.8,83.1,470.7,82.9z"/>
	<path class="st0" d="M477,79.3v-6.4c0.2,0.2,0.5,0.4,0.7,0.7v6.9C477.5,80.1,477.3,79.7,477,79.3z"/>
	<path class="st0" d="M474.4,71.6v-1.8c0.3,0.4,0.5,0.8,0.8,1.1v3.9C474.9,73.7,474.7,72.6,474.4,71.6z"/>
	<path class="st0" d="M477.8,80.5v-6.9c0.5,0.5,0.9,0.9,1.4,1.3c0,0,0.1,0.1,0.1,0.1v7.2C478.7,81.7,478.2,81.1,477.8,80.5z"/>
	<path class="st0" d="M478.9,57.6c0.1-0.8,0.2-1.6,0.4-2.4v12.7C478.4,64.6,478.5,61,478.9,57.6z"/>
	<path class="st0" d="M476.2,27c-1.2-0.2-2.1,0.5-2.5,1.7c-0.5,1.3-0.4,3.2-0.2,4.6c0,0,0,0,0,0.1c-0.7,0.1-1.4,0.3-2.1,0.5
		c0-1.8,0.2-3.7,0.6-5.2c0.1-0.2,0.1-0.4,0.2-0.6c1.4-0.5,2.5-1.4,2.8-2.8c0.3-0.1,0.7-0.1,1.1-0.1c0.6,0,1.1,0.2,1.6,0.4V28
		C477.5,27.4,476.8,27.1,476.2,27z"/>
	<path class="st0" d="M461.3,38.9c0.7-0.1,1.5-0.1,2.2,0.1c1.3,0.4,2.1,1.4,2.5,2.7c1,3.5-2.9,6.8-4.7,2.4c0.6,0,1.1-0.2,1.4-0.8
		c0.2-0.4,0.1-1-0.2-1.4c-0.7-1-2.2-0.3-2.8,0.5c-2.2,2.9,2.4,6.5,5,6.9c2.9,0.5,5-0.7,5.9-3.5c0.8-2.5,0.8-6,0.8-8.7
		c0.8-0.3,1.7-0.5,2.6-0.5c0.1,0.9,0.3,1.7,0.4,2.6c0.2,1.8,0.5,3.7,0.3,5.5c-0.4,6.6-4.8,7.5-10.6,6.2c-1.1-0.2-2.1-0.7-3.1-1.3
		c-2.2-1.4-4.2-4-3.9-6.5c0.8-0.1,1.5-0.4,2.2-0.9C460.4,41.5,461.1,40.2,461.3,38.9z"/>
	<path class="st0" d="M475.6,29c0.2,0.4,0.6,0.7,1.2,0.6c0.4-0.1,0.8-0.3,1-0.7v3C475.9,32.7,474.1,31.1,475.6,29z"/>
	<path class="st0" d="M477.8,28.9c0.2-0.3,0.1-0.7,0-1v-2.4c1,0.5,1.8,1.3,2.1,2.4c0.4,1.2-0.1,2.4-1,3.3c-0.4,0.4-0.8,0.6-1.1,0.8
		L477.8,28.9C477.8,29,477.8,29,477.8,28.9z"/>
	<path class="st0" d="M471.4,37c0,0.1,0,0.1,0,0.2c-0.1,0.1-0.3,0.1-0.4,0.2c-2.2,1.2-3.2,3.3-3.3,5.5c-0.6-2.5-0.4-5.2,1.4-7.2
		c0.6-0.8,1.5-1.4,2.4-1.8C471.4,35,471.4,36,471.4,37z"/>
	<path class="st0" d="M477.3,38.1c-0.8-1-2.1-1.4-3.3-1.4c-0.2-1.1-0.3-2.2-0.5-3.4c0.7-0.1,1.5,0,2.2,0.2c0.8,0.2,1.5,0.6,2,1.1
		v4.2C477.6,38.5,477.5,38.3,477.3,38.1z"/>
	<path class="st0" d="M473.6,55.5c0.5-2.8,1.5-5.4,2.5-8c0.6-1.5,1.2-3.2,1.7-4.9v10.1c-0.3,1.6-0.6,3.2-0.8,4.7
		c-0.5,4.1-0.5,8.2,0.8,12.1v1.4C474,66.6,472.4,61.6,473.6,55.5z"/>
	<path class="st0" d="M477.8,69.5c0.3,0.8,0.6,1.6,0.9,2.4c-0.3-0.3-0.6-0.7-0.9-1V69.5z"/>
	<path class="st0" d="M478.1,40.7c0.1-0.7,0-1.3-0.3-1.9v-4.2c1.6,1.4,2.2,3.8,2.1,6c-0.1,2.6-0.7,5.3-1.2,7.8
		c-0.3,1.4-0.6,2.8-0.9,4.2V42.5C477.9,41.9,478,41.3,478.1,40.7z"/>
	<path class="st0" d="M471.4,37c0-1,0-2,0-3.1c0.7-0.3,1.4-0.5,2.1-0.5c0.1,1.1,0.3,2.2,0.5,3.4c-0.9,0-1.8,0.2-2.6,0.5
		C471.4,37.1,471.4,37.1,471.4,37z"/>
	<path class="st0" d="M407.7,24h7c0.2,0.3,0.4,0.6,0.6,0.8C413.1,24.9,409.6,24.9,407.7,24z"/>
	<path class="st0" d="M413.9,22.2c-0.9,0-2.1,0-3.5,0L413.9,22.2C413.9,22.2,413.9,22.2,413.9,22.2z"/>
	<path class="st0" d="M413.9,22.2h-3.5c-4.1-0.1-9.6-0.4-11.7-2.2h15.2C413.7,20.7,413.7,21.5,413.9,22.2z"/>
	<path class="st0" d="M469.3,30.3c0.2-0.1,0.5-0.1,0.6,0.1c0.1,0.2,0.1,0.5-0.1,0.6c-0.2,0.1-0.5,0.1-0.6-0.1
		C469,30.8,469,30.5,469.3,30.3z"/>
	<path class="st0" d="M466.8,32.2c0.4-0.3,1-0.2,1.3,0.2c0.3,0.4,0.2,1-0.2,1.3c-0.4,0.3-1,0.2-1.3-0.2
		C466.3,33.1,466.4,32.5,466.8,32.2z"/>
	<path class="st0" d="M465.1,37.1c-0.6,0.4-1.5,0.3-1.9-0.3c-0.4-0.6-0.3-1.5,0.3-1.9c0.6-0.4,1.5-0.3,1.9,0.3
		C465.9,35.8,465.7,36.7,465.1,37.1z"/>
	<path class="st0" d="M444.1,46.9c0.6,1.2,1.3,2.4,2.2,3.5c-2.8-1.7-5.5-4.9-6.5-7.8c-0.3-0.8-0.5-2,0-2.7c0.6-0.7,1.8-0.6,2.7-0.5
		C442.1,41.9,443.1,44.9,444.1,46.9z"/>
	<path class="st0" d="M447.8,47c-0.5,0.4-1.3,0.3-1.7-0.3c-0.4-0.5-0.3-1.3,0.3-1.7c0.5-0.4,1.3-0.3,1.7,0.3
		C448.5,45.8,448.4,46.6,447.8,47z"/>
	<path class="st0" d="M449.4,48.6c0.7-0.5,1.7-0.3,2.3,0.4c0.5,0.7,0.3,1.7-0.4,2.3c-0.7,0.5-1.7,0.3-2.3-0.4
		C448.5,50.2,448.6,49.2,449.4,48.6z"/>
	<path class="st0" d="M445,38.6c0.2,0.2,0.1,0.5-0.1,0.7c-0.2,0.2-0.5,0.1-0.7-0.1c-0.2-0.2-0.1-0.5,0.1-0.7
		C444.5,38.4,444.8,38.4,445,38.6z"/>
	<path class="st0" d="M445.9,42.9c-0.4,0.3-0.9,0.2-1.2-0.2c-0.3-0.4-0.2-0.9,0.2-1.2c0.4-0.3,0.9-0.2,1.2,0.2
		C446.4,42.1,446.3,42.6,445.9,42.9z"/>
	<path class="st0" d="M447.2,37.5c1.2,3.6,4.1,7.3,8,7.6c-0.8,0.4-1.8,1.1-2,2c-0.1,0-0.2,0.1-0.3,0.1c-1,0-2-1-2.6-1.7
		c-1-1.2-1.7-2.8-2.2-4.3C447.6,40,447.3,38.7,447.2,37.5z"/>
	<path class="st0" d="M455.2,45c-0.4,0.8-1.1,1.8-2,2C453.4,46.2,454.4,45.4,455.2,45z"/>
	<path class="st0" d="M414,32.8c8,4.3,17.2,4.1,25.8,1.8c2.9-0.8,5.4-3.1,5.4-6.1c1.1,1,2,2.3,1.8,3.9c-0.4,2.7-3.5,4.4-5.8,5.1
		c-3.7,1.1-7.8,1.5-11.6,1.4c-5.6-0.2-11.5-1.7-16.1-5c-0.6-0.4-1.1-0.9-1.7-1.4c-0.8-0.8-2.3-2.6-1.9-3.8c0.2-0.7,1-1,1.7-1.2
		C410.4,29.5,412,31.7,414,32.8z"/>
	<path class="st0" d="M416.8,22.2c4.5,5.1,18,7.1,24.9,6.9c-1.3,0.4-2.8,0.6-3.9,0.7c-2.8,0.2-5.6,0.1-8.4-0.3
		c-3-0.4-6.3-1.1-9.1-2.4c-1.8-0.8-4.1-2.2-4.6-4.2c0-0.2-0.1-0.4-0.1-0.6H416.8z"/>
	<path class="st0" d="M415.8,20.8c0.2,0.5,0.6,1,1,1.4h-1.2C415.6,21.8,415.7,21.3,415.8,20.8z"/>
	<path class="st0" d="M432.6,33.5c-0.4-0.1-0.7-0.5-0.6-0.9c0.1-0.4,0.5-0.7,0.9-0.6c0.4,0.1,0.7,0.5,0.6,0.9
		C433.4,33.4,433,33.6,432.6,33.5z"/>
	<path class="st0" d="M429,33.5c-0.5-0.1-0.9-0.7-0.7-1.2c0.1-0.5,0.7-0.9,1.2-0.7c0.5,0.1,0.9,0.7,0.7,1.2
		C430,33.3,429.5,33.7,429,33.5z"/>
	<path class="st0" d="M424,31.8c0.2-0.7,0.8-1.1,1.5-0.9c0.7,0.2,1.1,0.8,0.9,1.5c-0.2,0.7-0.8,1.1-1.5,0.9
		C424.2,33.1,423.8,32.5,424,31.8z"/>
	<path class="st0" d="M422,31.3c-0.2,0.8-1,1.3-1.8,1.1c-0.8-0.2-1.3-1-1.1-1.8c0.2-0.8,1-1.3,1.8-1.1
		C421.7,29.7,422.2,30.5,422,31.3z"/>
	<path class="st0" d="M437.7,32.3c0-0.2,0.1-0.3,0.3-0.3c0.2,0,0.3,0.1,0.3,0.3c0,0.2-0.1,0.3-0.3,0.3
		C437.8,32.6,437.7,32.5,437.7,32.3z"/>
	<path class="st0" d="M415.3,30.8c-0.9-0.2-1.5-1.1-1.2-2c0.2-0.9,1.1-1.5,2-1.2c0.9,0.2,1.5,1.1,1.2,2
		C417.2,30.4,416.2,31,415.3,30.8z"/>
	<path class="st0" d="M435.4,33.2c-0.3-0.1-0.5-0.4-0.4-0.6c0.1-0.3,0.4-0.5,0.6-0.4c0.3,0.1,0.5,0.4,0.4,0.6
		C436,33,435.7,33.2,435.4,33.2z"/>
	<path class="st0" d="M427.3,23.2h-6.4c-0.5-0.3-1.1-0.6-1.6-1h7.1C426.7,22.6,427,22.9,427.3,23.2z"/>
	<path class="st0" d="M430.5,25.8h-1.8c-1.1-0.2-2.1-0.5-3.2-0.8h3.9C429.8,25.3,430.2,25.6,430.5,25.8z"/>
	<path class="st0" d="M445,21c-0.8,0.1-1.6,0.3-2.4,0.4c-3.4,0.4-6.9,0.5-10.2-0.4H445z"/>
	<path class="st0" d="M419.4,22.2c-0.5-0.4-1-0.8-1.3-1.3h7.2c0,0,0.1,0.1,0.1,0.1c0.3,0.4,0.7,0.8,1.1,1.2H419.4z"/>
	<path class="st0" d="M475,25.2c-1.4,0.3-2.3,1.4-2.8,2.8c-0.2,0.1-0.4,0.1-0.6,0.2c-1.6,0.4-3.4,0.5-5.2,0.6
		c0.3-0.7,0.5-1.4,0.5-2.1c0,0,0,0,0.1,0c1.4,0.2,3.3,0.3,4.6-0.2c1.1-0.5,1.8-1.3,1.7-2.5c-0.1-0.9-1-2-2-1.6
		c-0.3,0.1-0.5,0.4-0.6,0.7c-0.3,0.7,0,1.2,0.5,1.5c-2.2,1.6-3.8-0.5-2.8-2.4h6.2c0.3,0.6,0.5,1.2,0.6,1.9
		C475.2,24.5,475.1,24.9,475,25.2z"/>
	<path class="st0" d="M454.4,29.6c-2.8,0.9-4,3-3.5,5.9c0.4,2.6,4.1,7.2,6.9,5c0.8-0.6,1.4-2.1,0.5-2.8c-0.3-0.2-0.7-0.3-1-0.3
		c-0.9,0.1-1.2,0.7-1.2,1.5c-4.4-1.8-1.1-5.7,2.4-4.7c1.3,0.4,2.3,1.2,2.7,2.5c0.2,0.7,0.3,1.5,0.1,2.2c-0.6,0.1-1.2,0.3-1.7,0.6
		c-0.6,0.3-1.1,0.8-1.6,1.4c-0.5,0.7-0.8,1.5-0.9,2.2c-0.2,0-0.4,0-0.6,0c-3.5-0.1-6.5-3.8-7.2-7c-1.3-5.8-0.4-10.2,6.2-10.6
		c1.8-0.1,3.7,0.1,5.5,0.3c0.9,0.1,1.7,0.3,2.6,0.4c0,0.9-0.2,1.8-0.5,2.6C460.4,28.8,456.9,28.8,454.4,29.6z"/>
	<path class="st0" d="M469.1,21.4c0.9-0.9,2-1.3,3.3-1c1,0.3,1.7,1,2.2,1.9h-6.2C468.6,21.9,468.8,21.6,469.1,21.4z"/>
	<path class="st0" d="M459.6,39.5c0.5-0.3,1.1-0.5,1.7-0.6c-0.2,1.3-1,2.5-2,3.3c-0.7,0.5-1.4,0.8-2.2,0.9c0.1-0.7,0.4-1.5,0.9-2.2
		C458.4,40.3,459,39.9,459.6,39.5z"/>
	<path class="st0" d="M475,25.2c-0.3,1.4-1.4,2.3-2.8,2.8C472.7,26.7,473.6,25.6,475,25.2z"/>
	<path class="st0" d="M464.6,31.2c-2.1,1.7-4.7,1.9-7.2,1.4c2.3-0.2,4.4-1.1,5.5-3.3c0.1-0.1,0.1-0.3,0.2-0.4c0.1,0,0.1,0,0.2,0
		c1,0,2,0,3.1,0C466,29.7,465.4,30.6,464.6,31.2z"/>
	<path class="st0" d="M466.9,26.7c-1.1-0.1-2.2-0.3-3.4-0.5c0-1.3-0.4-2.5-1.4-3.3c-0.5-0.4-1-0.6-1.5-0.7h4.7
		c0.6,0.6,1.1,1.3,1.4,2.3C467,25.3,467,26,466.9,26.7z"/>
	<path class="st0" d="M452.8,24.2c-2.6,1-5.3,2-8,2.5c-6.3,1.2-11.3-0.4-15.7-4.4h0.9c1.1,0.4,2.1,0.7,3.3,0.9
		c3.1,0.6,6.4,0.5,9.6,0.1c2-0.3,4.1-0.6,6.1-1h10.2C457,22.5,454.7,23.4,452.8,24.2z"/>
	<path class="st0" d="M459.5,22.2c-0.2,0-0.3,0-0.5,0.1h-10.2c1-0.2,1.9-0.4,2.9-0.6c2.5-0.5,5.2-1.1,7.8-1.2
		c2.1-0.1,4.3,0.4,5.7,1.8h-4.7C460.3,22.2,459.9,22.1,459.5,22.2z"/>
	<path class="st0" d="M428.4,21.6c0.5,0.3,1.1,0.5,1.6,0.7h-0.9C428.9,22,428.6,21.8,428.4,21.6z"/>
	<path class="st0" d="M466.4,28.8c-1.1,0-2.2,0-3.1,0c-0.1,0-0.1,0-0.2,0c0.3-0.8,0.5-1.7,0.5-2.6c1.1,0.2,2.2,0.3,3.4,0.5
		C466.9,27.5,466.7,28.2,466.4,28.8z"/>
</g>
</svg>
